PathFileType	4	(X/Y/Z)	C:/Users/opensim2020/Desktop/walking_exp_matlab/subject03_walking10_straight_03.trc	
DataRate	CameraRate	NumFrames	NumMarkers	Units	OrigDataRate	OrigDataStartFrame	OrigNumFrames	
100.00	100.00	6	45	mm	100.00	2842	417	
Frame#	Time	LFHD			RFHD			LBHD			RBHD			C7			T10			CLAV			STRN			RBAK			LSHO			LUPA			LELB			LFRM			LWRA			LWRB			LFIN			RSHO			RUPA			RELB			RFRM			RWRA			RWRB			RFIN			LASI			RASI			LPSI			RPSI			LTHI			LKNE			LTIB			LANK			LHEE			LTOE			RTHI			RKNE			RTIB			RANK			RHEE			RTOE			*39			*40			*41			*42			*43			*44			
		X1	Y1	Z1	X2	Y2	Z2	X3	Y3	Z3	X4	Y4	Z4	X5	Y5	Z5	X6	Y6	Z6	X7	Y7	Z7	X8	Y8	Z8	X9	Y9	Z9	X10	Y10	Z10	X11	Y11	Z11	X12	Y12	Z12	X13	Y13	Z13	X14	Y14	Z14	X15	Y15	Z15	X16	Y16	Z16	X17	Y17	Z17	X18	Y18	Z18	X19	Y19	Z19	X20	Y20	Z20	X21	Y21	Z21	X22	Y22	Z22	X23	Y23	Z23	X24	Y24	Z24	X25	Y25	Z25	X26	Y26	Z26	X27	Y27	Z27	X28	Y28	Z28	X29	Y29	Z29	X30	Y30	Z30	X31	Y31	Z31	X32	Y32	Z32	X33	Y33	Z33	X34	Y34	Z34	X35	Y35	Z35	X36	Y36	Z36	X37	Y37	Z37	X38	Y38	Z38	X39	Y39	Z39	X40	Y40	Z40	X41	Y41	Z41	X42	Y42	Z42	X43	Y43	Z43	X44	Y44	Z44	X45	Y45	Z45	

105	1.040	1388.20740	-557.17108	1625.34229	1521.40649	-552.94543	1628.70532	1397.13367	-677.58130	1564.54272	1527.76868	-668.72644	1568.18860	1460.49878	-691.60358	1418.14258	1464.92395	-738.03186	1108.06592	1447.74329	-574.00891	1336.20496	1440.57837	-539.72504	1168.65112	1566.21387	-739.70557	1248.88135	1297.52429	-635.21613	1375.99951	1229.67261	-682.72235	1182.77771	1213.28784	-692.87543	1060.78552	1206.37976	-667.34729	933.66577	1230.60767	-637.77307	817.13531	1187.88623	-673.79834	820.92841	1191.46350	-651.11725	739.65027	1610.34131	-596.46588	1362.76611	1686.56104	-557.52582	1147.80530	1697.35852	-517.57306	1042.88245	1692.77209	-465.08694	916.57965	1648.51624	-416.74536	833.40228	1696.29102	-437.52997	820.62170	1682.83582	-395.26157	761.18195	1336.47559	-585.64355	939.05841	1572.83472	-572.28796	937.22565	1392.72339	-745.35370	961.94958	1541.78564	-733.75317	975.97455	1283.39600	-579.79175	641.93939	1321.56873	-509.75464	478.65613	1316.20996	-513.90222	286.04953	1346.85828	-477.78018	76.91668	1386.27319	-511.92627	37.56907	1371.13940	-326.84406	59.76930	1608.62317	-665.02374	648.54584	1571.50854	-684.55817	470.21802	1569.98230	-763.20770	294.25348	1514.36951	-820.06122	84.58504	1462.31226	-866.12097	59.01656	1496.05078	-680.96539	36.01947																		 
106	1.050	1387.49866	-550.38007	1624.54224	1520.64893	-546.14691	1628.01135	1396.46692	-670.70984	1563.56995	1527.08093	-661.85345	1567.37720	1459.73901	-684.75269	1417.48792	1463.96594	-731.16931	1107.27734	1447.24841	-567.10486	1335.46899	1440.18323	-532.84460	1167.83081	1565.68909	-733.50049	1248.34302	1296.87061	-628.12939	1375.15662	1229.78418	-675.80182	1181.74072	1214.04138	-686.33813	1059.70825	1207.27283	-661.22650	932.44092	1231.76318	-631.46185	816.01208	1189.39221	-667.74072	819.57544	1193.19067	-645.26172	738.28662	1609.72485	-589.82227	1361.97400	1685.86731	-550.68347	1147.05359	1696.45825	-510.38077	1042.26978	1691.40735	-457.26682	916.24860	1646.72131	-408.57242	833.24609	1694.61047	-429.25705	820.42102	1680.87463	-386.57321	761.30121	1336.12036	-578.41113	938.10553	1572.58069	-565.87775	936.63763	1391.81604	-738.17676	960.85718	1540.89856	-727.25403	975.12085	1283.33215	-574.18231	640.28625	1322.92065	-503.89893	477.32428	1317.05151	-502.54269	285.41470	1346.83484	-458.78802	77.36498	1386.24182	-491.01620	36.70277	1369.84180	-306.71344	64.51563	1608.50940	-659.63715	648.19824	1571.70801	-680.03644	469.92352	1570.21899	-760.46368	294.55093	1514.70166	-819.55640	85.37842	1462.60229	-865.84460	60.23026	1496.33850	-680.58960	36.20666																		 
107	1.060	1386.67639	-543.56549	1623.67554	1519.87134	-539.27979	1627.26160	1395.76025	-663.83954	1562.65295	1526.40039	-654.94019	1566.52136	1458.90540	-677.69696	1416.66187	1462.99475	-724.42938	1106.52246	1446.71118	-560.08167	1334.59949	1439.77539	-526.00903	1166.95178	1564.66077	-726.41150	1247.46863	1296.13599	-620.96130	1374.17468	1229.81274	-668.99573	1180.62024	1214.48438	-680.28851	1058.49219	1208.14783	-654.88452	931.27435	1232.81897	-625.03278	814.78296	1190.73828	-661.69922	818.29791	1194.96704	-639.35754	736.88800	1609.05603	-583.27557	1361.19690	1685.06726	-543.88300	1146.24304	1695.46753	-503.23892	1041.53259	1689.92676	-449.63107	915.62146	1645.13586	-400.48535	833.39075	1692.89746	-421.29050	820.07703	1679.02271	-378.24841	761.25726	1335.68286	-571.24017	936.95093	1572.27551	-559.60254	936.04749	1390.76855	-730.93237	959.74677	1539.90527	-720.78461	974.26068	1283.03137	-568.08850	638.54834	1324.11230	-498.06543	475.70721	1317.90454	-491.80026	284.76660	1346.76892	-441.15118	77.89381	1386.61487	-471.79568	36.65191	1367.89795	-288.04581	69.39972	1608.45117	-654.16010	647.74542	1571.87610	-675.25446	469.57520	1570.41711	-757.61365	294.86835	1514.90967	-818.95972	86.08698	1462.92505	-865.54718	61.48624	1496.25037	-680.64417	35.92414	1441.95117	-631.02100	1673.22095															 
108	1.070	1385.90186	-536.68518	1622.89734	1519.09558	-532.40497	1626.49121	1395.01416	-656.80524	1561.69104	1525.67407	-647.98120	1565.65088	1458.11511	-670.72205	1415.86792	1461.96973	-717.68774	1105.82825	1446.10571	-553.00867	1333.74719	1439.43408	-518.92438	1166.03955	1563.74646	-719.66418	1246.75537	1295.38562	-613.60242	1373.22424	1229.80408	-661.78864	1179.41101	1214.92651	-673.62689	1057.29626	1209.00317	-648.45343	929.91992	1233.86572	-618.45856	813.70972	1192.13989	-655.43060	816.88165	1196.75940	-633.22174	735.41711	1608.44263	-576.46979	1360.35840	1684.28564	-537.12500	1145.41724	1694.45752	-496.25940	1040.71997	1688.54248	-442.19247	915.14368	1643.49487	-392.70837	833.08203	1691.18359	-413.46359	819.54114	1677.12500	-370.24878	761.01129	1335.29504	-563.78101	936.00433	1571.93103	-553.20117	935.34070	1389.56506	-723.69476	958.55688	1538.78406	-714.14722	973.38422	1282.59705	-561.59473	636.88092	1325.19995	-492.04184	474.34738	1318.72681	-481.68839	284.18250	1346.70923	-425.31619	78.93017	1386.96912	-453.67487	36.65386	1366.15125	-271.13184	74.18266	1608.31665	-648.55212	647.27783	1572.07092	-670.35968	469.13318	1570.57593	-754.61548	295.15134	1515.30566	-818.25940	86.98341	1463.29358	-865.20624	62.82443	1496.45776	-680.32288	35.99745																		 
109	1.080	1385.05054	-529.72235	1622.02356	1518.25659	-525.44318	1625.78833	1394.17749	-649.77325	1560.60522	1524.87268	-640.95764	1564.74597	1457.19373	-663.48810	1414.99451	1460.70435	-710.49713	1104.87537	1445.49951	-545.87561	1332.91150	1439.09619	-511.66519	1165.17065	1562.92065	-713.22565	1246.08362	1294.56653	-606.09698	1372.16736	1229.56116	-654.53918	1178.27405	1215.35437	-666.44489	1055.97693	1209.82849	-641.70361	928.58636	1234.81958	-611.59332	812.63696	1193.46021	-648.99829	815.49188	1198.47498	-626.96851	733.91821	1607.80444	-569.52539	1359.52820	1683.38013	-530.41394	1144.47375	1693.39758	-489.30832	1039.86145	1687.22351	-434.89069	914.46521	1641.85986	-385.23093	832.59674	1689.49231	-405.87247	818.90247	1675.20715	-362.42157	760.45752	1334.79102	-556.17413	934.87274	1571.49390	-546.72229	934.56543	1388.37793	-716.55298	957.68939	1537.46924	-707.50958	972.51355	1282.54333	-554.87677	635.31738	1326.16223	-485.96365	472.75623	1319.37891	-472.20303	283.59885	1346.59607	-410.71524	79.58466	1386.89685	-437.43372	36.41183	1363.85852	-255.91492	78.40714	1608.23840	-642.83942	646.77252	1572.19226	-665.19049	468.65109	1570.76465	-751.31573	295.36932	1515.71704	-817.59375	87.91354	1463.69446	-864.83044	64.26045	1496.51538	-680.24280	35.75855	1439.66528	-617.18207	1670.63733															 
110	1.090	1384.16943	-522.74805	1621.15259	1517.36670	-518.47180	1624.99048	1393.38904	-642.76129	1559.71362	1523.99670	-633.92371	1563.84277	1456.19849	-656.28900	1414.11096	1459.41504	-703.44171	1104.04810	1444.79114	-538.69861	1331.95740	1438.75281	-504.29977	1164.37903	1561.60474	-705.87769	1245.07666	1293.68152	-598.43542	1371.18848	1229.38879	-647.06763	1177.19128	1215.68323	-659.14789	1054.71179	1210.53552	-634.91180	927.21869	1235.44226	-604.41931	811.74365	1194.70532	-642.35986	814.00281	1200.19629	-620.65009	732.41650	1607.03503	-562.67773	1358.69238	1682.40112	-523.74188	1143.54834	1692.29236	-482.46555	1038.93457	1685.73108	-427.79913	913.61591	1640.35059	-377.73926	832.14606	1687.82678	-398.60245	818.16547	1673.48694	-355.08258	759.83929	1334.31335	-548.47253	933.84760	1571.07190	-540.28571	933.83594	1386.96875	-708.91687	956.70068	1536.09509	-700.79785	971.66321	1282.76660	-547.75989	633.84918	1326.93994	-479.46710	471.23120	1319.77271	-463.10577	282.95761	1346.33459	-397.74432	79.87431	1387.11597	-423.66422	36.48350	1361.91748	-242.70113	81.65897	1607.90479	-637.08173	646.28650	1572.30591	-659.93872	468.15341	1570.86963	-748.02142	295.59027	1515.99219	-816.93323	88.94552	1464.00562	-864.47217	65.81770	1496.62854	-680.08893	35.67764	1438.83289	-610.31018	1669.87891															 
